<?xml version="1.0" encoding="UTF-8" standalone="no"?>
<!DOCTYPE svg PUBLIC "-//W3C//DTD SVG 1.1//EN" "http://www.w3.org/Graphics/SVG/1.1/DTD/svg11.dtd">
<svg width="100%" height="100%" viewBox="0 0 576 512" version="1.1" xmlns="http://www.w3.org/2000/svg" xmlns:xlink="http://www.w3.org/1999/xlink" xml:space="preserve" xmlns:serif="http://www.serif.com/" style="fill-rule:evenodd;clip-rule:evenodd;stroke-linejoin:round;stroke-miterlimit:2;">
    <path d="M64,0C28.7,0 0,28.7 0,64L0,352C0,387.3 28.7,416 64,416L240,416L229.3,448L160,448C142.3,448 128,462.3 128,480C128,497.7 142.3,512 160,512L416,512C433.7,512 448,497.7 448,480C448,462.3 433.7,448 416,448L346.7,448L336,416L512,416C547.3,416 576,387.3 576,352L576,64C576,28.7 547.3,0 512,0L64,0ZM512,64L512,352L64,352L64,64L512,64Z" style="fill:rgb(83,91,242);fill-rule:nonzero;"/>
    <g transform="matrix(1.3182e-17,0.215278,-0.215278,1.3182e-17,460.115,36.6096)">
        <path d="M848.704,1448.5L1094.77,1448.5L1094.77,1448.51L1200.5,1448.51L1200.5,1549.5L399.5,1549.5L399.5,1448.51L512.041,1448.51L512.041,1448.5L751.428,1448.5L751.428,1400.5L649.635,1400.5L649.635,1266.23L649.5,1266.23L649.5,1250.5L550.5,1250.5L550.5,1266.23L550.454,1266.23L550.454,1400.5L512.041,1400.5L512.041,1400.49L381.881,1400.49L381.881,1400.5L299.5,1400.5L299.5,998.5C382.834,998.333 466.167,998.5 549.5,999C550.497,1048.76 550.831,1098.59 550.5,1148.5L649.5,1148.5C649.667,1108.5 649.5,1068.5 649,1028.5C598.987,995.328 549.321,961.662 500,927.5C499.833,903 499.667,878.5 499.5,854C499.342,828.748 499.842,803.581 501,778.5C550.577,713.012 599.91,647.346 649,581.5C649.367,554.476 650.2,527.476 651.5,500.5L549.5,500.5L549.5,650.5L299.5,650.5L299.5,248.5L549.5,248.5L549.5,398.5C586.739,398.83 623.906,398.496 661,397.5C667.844,329.282 680.844,262.282 700,196.5C705.092,181.156 710.592,165.99 716.5,151C627.5,150.667 538.5,150.333 449.5,150C448.504,116.573 448.171,83.073 448.5,49.5L1149.5,49.5L1149.5,150.5C1060.17,150.333 970.833,150.5 881.5,151C903.142,206.732 918.309,264.232 927,323.5C930.894,348.091 934.227,372.758 937,397.5C974.094,398.496 1011.26,398.83 1048.5,398.5C1048.17,348.595 1048.5,298.762 1049.5,249C1132.83,248.5 1216.17,248.333 1299.5,248.5L1299.5,650.5C1216.17,650.667 1132.83,650.5 1049.5,650C1048.5,600.238 1048.17,550.405 1048.5,500.5L946.5,500.5C947.485,527.9 948.652,555.233 950,582.5C1000.05,648.217 1049.72,714.217 1099,780.5C1100.36,829.16 1100.69,877.827 1100,926.5C1050.91,960.753 1001.41,994.42 951.5,1027.5C950.5,1067.83 950.167,1108.16 950.5,1148.5L1049.5,1148.5L1049.5,998.5L1299.5,998.5L1299.5,1400.5L1224.93,1400.5L1224.93,1400.49L1094.77,1400.49L1094.77,1400.5L1049.53,1400.5L1049.53,1266.23L1049.5,1266.23L1049.5,1250.5L950.5,1250.5L950.5,1266.23L950.485,1266.23L950.485,1400.5L848.704,1400.5L848.704,1448.5Z" style="fill:rgb(0,189,126);fill-opacity:0.99;"/>
    </g>
</svg>
